PathFileType	4	(X/Y/Z)	D:\TRACE\spotREDO_2-26-24\spot_Both_Motion_3_9-platform.trc
DataRate	CameraRate	NumFrames	NumMarkers	Units	OrigDataRate	OrigDataStartFrame	OrigNumFrames
100.00	100.00	      24	5	mm	100.00	6126	      7000
Frame#	Time	Left_Front			Right_Front			Left_Aft			Right_Aft			Post			
		X1	Y1	Z1	X2	Y2	Z2	X3	Y3	Z3	X4	Y4	Z4	X5	Y5	Z5	

6126	61.250	-706.76788	17.98216	-569.72760	707.99664	23.66024	-484.80469	-778.37524	-18.90655	648.37964	790.98175	-11.86409	653.53186	-12.70410	659.41522	-952.64758	
6127	61.260	-706.73676	17.79854	-569.85754	707.96088	23.61039	-484.88864	-778.38037	-18.74556	648.37488	791.02753	-11.65940	653.52509	-12.67366	659.15021	-953.05670	
6128	61.270	-706.68378	17.58181	-569.84955	707.88867	23.42228	-485.00955	-778.31885	-18.56203	648.39606	790.94934	-11.24550	653.56476	-12.81838	658.91504	-953.24426	
6129	61.280	-706.53296	17.35314	-569.94855	707.89972	23.29323	-485.08307	-778.25854	-18.34269	648.41815	790.98718	-11.07808	653.41113	-12.76007	658.59772	-953.48383	
6130	61.290	-706.64349	17.39621	-569.92682	707.77863	23.21420	-485.28259	-778.25421	-18.05578	648.36121	790.94360	-10.92716	653.33740	-12.78593	658.33698	-953.75867	
6131	61.300	-706.51953	17.16675	-570.09448	707.72974	23.01557	-485.30170	-778.28992	-17.82430	648.27979	791.06323	-10.75414	653.30243	-12.93576	658.02747	-954.03198	
6132	61.310	-706.52167	16.82714	-570.01611	707.70013	22.90967	-485.37848	-778.30756	-17.56290	648.17499	791.10150	-10.60585	653.27515	-12.96844	657.59631	-954.31097	
6133	61.320	-706.55359	16.64644	-570.06073	707.62854	22.82344	-485.47128	-778.29352	-17.31203	648.11237	791.18091	-10.38936	653.27887	-12.91732	657.06512	-954.67145	
6134	61.330	-706.62939	16.40207	-570.13153	707.69843	22.58899	-485.50949	-778.30414	-17.03502	647.95691	791.16455	-10.05729	653.22192	-12.70214	656.64502	-955.13727	
6135	61.340	-706.72296	15.99069	-570.35443	707.95746	22.09318	-485.51831	-778.28156	-16.78563	647.89276	791.08246	-9.76828	653.13385	-12.63073	656.40576	-955.48163	
6136	61.350	-706.70367	15.59375	-570.53198	708.04822	21.86993	-485.55377	-778.36932	-16.54194	647.90997	790.99683	-9.38961	652.98315	-12.53028	655.95642	-956.05151	
6137	61.360	-706.72186	15.36343	-570.61615	708.13287	21.71687	-485.62421	-778.39520	-16.36307	647.85114	790.89203	-9.06161	652.90485	-12.84420	655.28174	-956.50647	
6138	61.370	-706.68311	15.22542	-570.57410	708.12671	21.67090	-485.77701	-778.22949	-15.98283	647.82404	790.76794	-8.89146	652.84558	-12.97692	654.78857	-956.84747	
6139	61.380	-706.67731	15.04325	-570.62750	708.12830	21.47185	-485.88037	-778.12183	-15.60890	647.69434	790.97974	-8.43857	652.81940	-12.73526	654.46997	-956.97491	
6140	61.390	-706.50098	14.79246	-570.70709	708.07623	21.25141	-486.01001	-777.97186	-15.22104	647.50836	791.25830	-8.14911	652.93402	-12.52612	653.99084	-957.60608	
6141	61.400	-706.16016	14.26104	-570.84106	708.17914	20.82483	-486.09241	-777.81500	-14.60127	647.54565	791.38287	-7.96289	652.85834	-12.05293	653.36627	-958.10846	
6142	61.410	-706.21783	14.39351	-571.17438	708.39270	20.33965	-486.13449	-777.69757	-14.41208	647.42462	791.50775	-7.58257	652.77142	-12.19635	652.86145	-958.34448	
6143	61.420	-706.14575	13.91794	-570.81573	708.50110	20.15168	-486.25113	-777.46252	-14.21814	647.34033	791.91016	-7.01104	652.72516	-12.27363	652.30011	-958.87952	
6144	61.430	-706.06982	13.74392	-570.88745	708.51221	20.00224	-486.35391	-777.41742	-14.03809	647.16675	791.99451	-6.88405	652.64209	-12.11911	651.94812	-959.24854	
6145	61.440	-706.00958	13.57019	-570.92889	708.63629	19.66046	-486.42368	-777.03015	-13.76278	647.22760	792.04236	-6.52007	652.59949	-11.84135	651.34064	-959.72034	
6146	61.450	-705.82648	13.16645	-571.02875	708.95813	19.23634	-486.35483	-777.19684	-13.55314	647.08417	792.10242	-6.20373	652.48944	-11.67700	650.87744	-960.03656	
6147	61.460	-705.64673	12.76252	-571.05420	709.07025	18.89428	-486.45636	-776.98108	-13.20093	646.96326	792.13910	-5.98875	652.32996	-11.26105	650.29059	-960.16351	
6148	61.470	-705.41077	12.48750	-571.23407	709.16180	18.71565	-486.53375	-776.80798	-12.86078	646.82153	792.13385	-5.78820	652.16772	-11.65894	649.87689	-960.61279	
6149	61.480	-705.14343	12.09375	-571.55164	709.37140	18.60929	-486.66162	-776.71906	-12.30253	646.71191	792.35681	-5.40040	652.19562	-11.47088	649.15320	-961.10156	
